<svg width="16" height="16" viewBox="0 0 16 16" fill="none" xmlns="http://www.w3.org/2000/svg">
<g clip-path="url(#clip0_6632_2378)">
<path d="M14.4 4.79996C13.96 4.79996 13.6 4.43996 13.6 3.99996C13.6 3.55996 13.96 3.19996 14.4 3.19996V2.39996H1.6V3.19996C2.04 3.19996 2.4 3.55996 2.4 3.99996C2.4 4.43996 2.04 4.79996 1.6 4.79996H0V10.4H1.6C2.04 10.4 2.4 10.76 2.4 11.2C2.4 11.64 2.04 12 1.6 12V12.8H14.4V12C13.96 12 13.6 11.64 13.6 11.2C13.6 10.76 13.96 10.4 14.4 10.4H16V4.79996H14.4ZM14.4 7.99996H13.6V8.79996H12V7.99996H9.128C8.96 8.46396 8.52 8.79996 8 8.79996C7.48 8.79996 7.04 8.46396 6.872 7.99996H4V8.79996H2.4V7.99996H1.6V7.19996H2.4V6.39996H4V7.19996H6.872C7.04 6.73596 7.48 6.39996 8 6.39996C8.52 6.39996 8.96 6.73596 9.128 7.19996H12V6.39996H13.6V7.19996H14.4V7.99996Z" fill="white"/>
</g>
<defs>
<clipPath id="clip0_6632_2378">
<rect width="16" height="16" fill="white"/>
</clipPath>
</defs>
</svg>
