<svg width="16" height="16" viewBox="0 0 16 16" fill="none" xmlns="http://www.w3.org/2000/svg">
<g clip-path="url(#clip0_6632_2374)">
<path d="M14.5455 7.27276C13.0909 7.27276 12.3636 5.09094 10.1818 5.09094C8 5.09094 8 6.54549 8 6.54549C8 6.54549 8 5.09094 5.81818 5.09094C3.63636 5.09094 2.90909 7.27276 1.45455 7.27276C0.727273 7.27276 0 6.54549 0 6.54549C0 6.54549 0.727273 10.1819 3.63636 10.1819C7.27273 10.1819 8 8.00003 8 8.00003C8 8.00003 8.72727 10.1819 12.3636 10.1819C15.2727 10.1819 16 6.54549 16 6.54549C16 6.54549 15.2727 7.27276 14.5455 7.27276Z" fill="white"/>
</g>
<defs>
<clipPath id="clip0_6632_2374">
<rect width="16" height="16" fill="white"/>
</clipPath>
</defs>
</svg>
