<svg width="24" height="24" viewBox="0 0 24 24" fill="none" xmlns="http://www.w3.org/2000/svg">
<g clip-path="url(#clip0_526_69)">
<path d="M23.4392 12.2245C23.4392 11.2413 23.3594 10.5238 23.1867 9.77966H11.9587V14.2176H18.5493C18.4165 15.3205 17.699 16.9815 16.1044 18.0976L16.0821 18.2462L19.6321 20.9964L19.8781 21.0209C22.1369 18.9347 23.4392 15.8653 23.4392 12.2245Z" fill="#4285F4"/>
<path d="M11.9587 23.9176C15.1875 23.9176 17.8982 22.8545 19.8781 21.0209L16.1044 18.0976C15.0946 18.8018 13.7392 19.2934 11.9587 19.2934C8.79631 19.2934 6.11225 17.2074 5.15545 14.324L5.01521 14.3359L1.32379 17.1927L1.27551 17.3269C3.24205 21.2334 7.28147 23.9176 11.9587 23.9176Z" fill="#34A853"/>
<path d="M5.15551 14.3239C4.90305 13.5798 4.75695 12.7825 4.75695 11.9587C4.75695 11.1349 4.90305 10.3376 5.14223 9.59354L5.13554 9.43507L1.39786 6.53235L1.27557 6.59052C0.465069 8.21162 0 10.032 0 11.9587C0 13.8854 0.465069 15.7058 1.27557 17.3269L5.15551 14.3239Z" fill="#FBBC05"/>
<path d="M11.9587 4.62403C14.2043 4.62403 15.719 5.59402 16.5827 6.40461L19.9578 3.10928C17.885 1.1826 15.1875 0 11.9587 0C7.28147 0 3.24205 2.68406 1.27551 6.59056L5.14217 9.59359C6.11225 6.7102 8.79631 4.62403 11.9587 4.62403Z" fill="#EB4335"/>
</g>
<defs>
<clipPath id="clip0_526_69">
<rect width="24" height="24" fill="white"/>
</clipPath>
</defs>
</svg>
